{
  "accessors": [
    {
      "bufferView": 2,
      "componentType": 5126,
      "count": 9900,
      "max": [
        124.98426818847656,
        124.98426818847656,
        125
      ],
      "min": [
        -124.98426818847656,
        -124.98426818847656,
        -125
      ],
      "type": "VEC3"
    },
    {
      "bufferView": 2,
      "byteOffset": 118800,
      "componentType": 5126,
      "count": 9900,
      "max": [
        0.99945068359375,
        0.99987417459487915,
        1
      ],
      "min": [
        -0.99987417459487915,
        -0.99987411499023438,
        -1
      ],
      "type": "VEC3"
    },
    {
      "bufferView": 1,
      "componentType": 5126,
      "count": 9900,
      "max": [
        1,
        0.99797433614730835
      ],
      "min": [
        2.7866697109857341e-06,
        0.0020256636198610067
      ],
      "type": "VEC2"
    },
    {
      "bufferView": 0,
      "componentType": 5125,
      "count": 58800,
      "max": [
        9899
      ],
      "min": [
        0
      ],
      "type": "SCALAR"
    },
    {
      "bufferView": 2,
      "byteOffset": 237600,
      "componentType": 5126,
      "count": 9900,
      "max": [
        -120.00125885009766,
        44.998741149902344,
        -6.5
      ],
      "min": [
        -139.99874877929688,
        25.001258850097656,
        -23.5
      ],
      "type": "VEC3"
    },
    {
      "bufferView": 2,
      "byteOffset": 356400,
      "componentType": 5126,
      "count": 9900,
      "max": [
        0.99942916631698608,
        0.99982589483261108,
        1
      ],
      "min": [
        -0.99982583522796631,
        -0.99982583522796631,
        -1
      ],
      "type": "VEC3"
    },
    {
      "bufferView": 1,
      "byteOffset": 79200,
      "componentType": 5126,
      "count": 9900,
      "max": [
        1,
        0.99761688709259033
      ],
      "min": [
        2.0426759874681011e-06,
        0.0023831231519579887
      ],
      "type": "VEC2"
    },
    {
      "bufferView": 0,
      "byteOffset": 235200,
      "componentType": 5125,
      "count": 58800,
      "max": [
        9899
      ],
      "min": [
        0
      ],
      "type": "SCALAR"
    },
    {
      "bufferView": 2,
      "byteOffset": 475200,
      "componentType": 5126,
      "count": 9900,
      "max": [
        -133.00088500976562,
        11.999118804931641,
        7
      ],
      "min": [
        -146.99911499023438,
        -1.9991188049316406,
        -5
      ],
      "type": "VEC3"
    },
    {
      "bufferView": 2,
      "byteOffset": 594000,
      "componentType": 5126,
      "count": 9900,
      "max": [
        0.99943071603775024,
        0.9998287558555603,
        1
      ],
      "min": [
        -0.99982863664627075,
        -0.9998287558555603,
        -1
      ],
      "type": "VEC3"
    },
    {
      "bufferView": 1,
      "byteOffset": 158400,
      "componentType": 5126,
      "count": 9900,
      "max": [
        0.99999725818634033,
        0.99763673543930054
      ],
      "min": [
        1.774738045412505e-08,
        0.0023632622323930264
      ],
      "type": "VEC2"
    },
    {
      "bufferView": 0,
      "byteOffset": 470400,
      "componentType": 5125,
      "count": 58800,
      "max": [
        9899
      ],
      "min": [
        0
      ],
      "type": "SCALAR"
    },
    {
      "bufferView": 2,
      "byteOffset": 712800,
      "componentType": 5126,
      "count": 65532,
      "max": [
        123.85533905029297,
        128.52935791015625,
        41.24517822265625
      ],
      "min": [
        -129.34332275390625,
        -123.90155792236328,
        1.53729248046875
      ],
      "type": "VEC3"
    },
    {
      "bufferView": 2,
      "byteOffset": 1499184,
      "componentType": 5126,
      "count": 65532,
      "max": [
        0.74701672792434692,
        0.73344898223876953,
        -0.5578911304473877
      ],
      "min": [
        -0.79505491256713867,
        -0.73340505361557007,
        -0.9999961256980896
      ],
      "type": "VEC3"
    },
    {
      "bufferView": 1,
      "byteOffset": 237600,
      "componentType": 5126,
      "count": 65532,
      "max": [
        0.99608558416366577,
        1.0032490491867065
      ],
      "min": [
        0.0012826803140342236,
        -0.0043557193130254745
      ],
      "type": "VEC2"
    },
    {
      "bufferView": 0,
      "byteOffset": 705600,
      "componentType": 5125,
      "count": 390126,
      "max": [
        65531
      ],
      "min": [
        0
      ],
      "type": "SCALAR"
    },
    {
      "bufferView": 2,
      "byteOffset": 2285568,
      "componentType": 5126,
      "count": 776,
      "max": [
        123.60665130615234,
        129.32464599609375,
        35.042892456054688
      ],
      "min": [
        -129.18058776855469,
        126.62159729003906,
        9.326873779296875
      ],
      "type": "VEC3"
    },
    {
      "bufferView": 2,
      "byteOffset": 2294880,
      "componentType": 5126,
      "count": 776,
      "max": [
        0.7200588583946228,
        0.77732813358306885,
        -0.50236612558364868
      ],
      "min": [
        -0.63658589124679565,
        -0.55153685808181763,
        -0.99926668405532837
      ],
      "type": "VEC3"
    },
    {
      "bufferView": 1,
      "byteOffset": 761856,
      "componentType": 5126,
      "count": 776,
      "max": [
        0.99921917915344238,
        1.0023277997970581
      ],
      "min": [
        0.98831027746200562,
        -0.0033938530832529068
      ],
      "type": "VEC2"
    },
    {
      "bufferView": 0,
      "byteOffset": 2266104,
      "componentType": 5125,
      "count": 3090,
      "max": [
        775
      ],
      "min": [
        0
      ],
      "type": "SCALAR"
    }
  ],
  "asset": {
    "extras": {
      "author": "Salvatore Orlando (https://sketchfab.com/sorlando)",
      "license": "CC-BY-4.0 (http://creativecommons.org/licenses/by/4.0/)",
      "source": "https://sketchfab.com/3d-models/star-wars-binary-sunset-over-tatooine-desert-6543e8e057ea4a85ba3586ce00e42b98",
      "title": "Star Wars: Binary sunset over Tatooine desert"
    },
    "generator": "Sketchfab-9.31.0",
    "version": "2.0"
  },
  "bufferViews": [
    {
      "buffer": 0,
      "byteLength": 2278464,
      "byteOffset": 0,
      "name": "floatBufferViews",
      "target": 34963
    },
    {
      "buffer": 0,
      "byteLength": 768064,
      "byteOffset": 2278464,
      "byteStride": 8,
      "name": "floatBufferViews",
      "target": 34962
    },
    {
      "buffer": 0,
      "byteLength": 2304192,
      "byteOffset": 3046528,
      "byteStride": 12,
      "name": "floatBufferViews",
      "target": 34962
    }
  ],
  "buffers": [
    {
      "byteLength": 5350720,
      "uri": "scene.bin"
    }
  ],
  "images": [
    {
      "uri": "textures/material_0_baseColor.png"
    },
    {
      "uri": "textures/material_0_emissive.png"
    },
    {
      "uri": "textures/material_1_baseColor.png"
    },
    {
      "uri": "textures/material_2_baseColor.png"
    },
    {
      "uri": "textures/material_3_baseColor.png"
    }
  ],
  "materials": [
    {
      "alphaMode": "BLEND",
      "doubleSided": true,
      "emissiveFactor": [
        1,
        1,
        1
      ],
      "emissiveTexture": {
        "index": 1,
        "texCoord": 0
      },
      "name": "material_0",
      "pbrMetallicRoughness": {
        "baseColorFactor": [
          1,
          1,
          1,
          0.1702519794
        ],
        "baseColorTexture": {
          "index": 0,
          "texCoord": 0
        },
        "metallicFactor": 0,
        "roughnessFactor": 1
      }
    },
    {
      "doubleSided": false,
      "emissiveFactor": [
        0.13275235199999999,
        0.13275235199999999,
        0.13275235199999999
      ],
      "emissiveTexture": {
        "index": 3,
        "texCoord": 0
      },
      "name": "material_1",
      "pbrMetallicRoughness": {
        "baseColorFactor": [
          1,
          1,
          1,
          1
        ],
        "baseColorTexture": {
          "index": 2,
          "texCoord": 0
        },
        "metallicFactor": 0,
        "roughnessFactor": 1
      }
    },
    {
      "doubleSided": true,
      "emissiveFactor": [
        1,
        1,
        1
      ],
      "emissiveTexture": {
        "index": 5,
        "texCoord": 0
      },
      "name": "material_2",
      "pbrMetallicRoughness": {
        "baseColorFactor": [
          1,
          1,
          1,
          1
        ],
        "baseColorTexture": {
          "index": 4,
          "texCoord": 0
        },
        "metallicFactor": 0,
        "roughnessFactor": 1
      }
    },
    {
      "doubleSided": false,
      "name": "material_3",
      "pbrMetallicRoughness": {
        "baseColorFactor": [
          1,
          1,
          1,
          1
        ],
        "baseColorTexture": {
          "index": 6,
          "texCoord": 0
        },
        "metallicFactor": 0,
        "roughnessFactor": 1
      }
    }
  ],
  "meshes": [
    {
      "primitives": [
        {
          "attributes": {
            "NORMAL": 1,
            "POSITION": 0,
            "TEXCOORD_0": 2
          },
          "indices": 3,
          "material": 0,
          "mode": 4
        }
      ]
    },
    {
      "primitives": [
        {
          "attributes": {
            "NORMAL": 5,
            "POSITION": 4,
            "TEXCOORD_0": 6
          },
          "indices": 7,
          "material": 1,
          "mode": 4
        }
      ]
    },
    {
      "primitives": [
        {
          "attributes": {
            "NORMAL": 9,
            "POSITION": 8,
            "TEXCOORD_0": 10
          },
          "indices": 11,
          "material": 2,
          "mode": 4
        }
      ]
    },
    {
      "primitives": [
        {
          "attributes": {
            "NORMAL": 13,
            "POSITION": 12,
            "TEXCOORD_0": 14
          },
          "indices": 15,
          "material": 3,
          "mode": 4
        }
      ]
    },
    {
      "primitives": [
        {
          "attributes": {
            "NORMAL": 17,
            "POSITION": 16,
            "TEXCOORD_0": 18
          },
          "indices": 19,
          "material": 3,
          "mode": 4
        }
      ]
    }
  ],
  "nodes": [
    {
      "children": [
        1
      ],
      "name": "RootNode (gltf orientation matrix)",
      "rotation": [
        -0.70710678118654746,
        -0,
        -0,
        0.70710678118654757
      ]
    },
    {
      "children": [
        2
      ],
      "matrix": [
        2.5,
        0,
        0,
        0,
        0,
        -0.0093006255337968469,
        2.4999827146530151,
        0,
        0,
        -2.4999827146530151,
        -0.0093006255337968469,
        0,
        0,
        2.17010498046875,
        2.1782777309417725,
        1
      ],
      "name": "RootNode (model correction matrix)"
    },
    {
      "children": [
        3
      ],
      "name": "root"
    },
    {
      "children": [
        4
      ],
      "matrix": [
        1,
        0,
        0,
        0,
        0,
        2.2204460492503131e-16,
        1,
        0,
        0,
        -1,
        2.2204460492503131e-16,
        0,
        0,
        0,
        0,
        1
      ],
      "name": "GLTF_SceneRootNode"
    },
    {
      "children": [
        5,
        7,
        9,
        11
      ],
      "name": "Renderer Node_5"
    },
    {
      "children": [
        6
      ],
      "name": "mesh0_0"
    },
    {
      "mesh": 0,
      "name": ""
    },
    {
      "children": [
        8
      ],
      "name": "mesh1_1"
    },
    {
      "mesh": 1,
      "name": ""
    },
    {
      "children": [
        10
      ],
      "name": "mesh2_2"
    },
    {
      "mesh": 2,
      "name": ""
    },
    {
      "children": [
        12,
        13
      ],
      "name": "mesh3_3"
    },
    {
      "mesh": 3,
      "name": ""
    },
    {
      "mesh": 4,
      "name": ""
    }
  ],
  "samplers": [
    {
      "magFilter": 9728,
      "minFilter": 9728,
      "wrapS": 10497,
      "wrapT": 10497
    },
    {
      "magFilter": 9729,
      "minFilter": 9987,
      "wrapS": 10497,
      "wrapT": 10497
    }
  ],
  "scene": 0,
  "scenes": [
    {
      "name": "OSG_Scene",
      "nodes": [
        0
      ]
    }
  ],
  "textures": [
    {
      "sampler": 0,
      "source": 0
    },
    {
      "sampler": 1,
      "source": 1
    },
    {
      "sampler": 0,
      "source": 2
    },
    {
      "sampler": 1,
      "source": 2
    },
    {
      "sampler": 0,
      "source": 3
    },
    {
      "sampler": 1,
      "source": 3
    },
    {
      "sampler": 0,
      "source": 4
    }
  ]
}

